<svg width="24" height="30" viewBox="0 0 24 30" fill="none" xmlns="http://www.w3.org/2000/svg">
<path fill-rule="evenodd" clip-rule="evenodd" d="M12 0C5.373 0 0 5.46912 0 12.2148C0 18.9079 3.8295 26.7201 9.8055 29.5117C10.4924 29.8333 11.2416 30 12 30C12.7584 30 13.5076 29.8333 14.1945 29.5117C20.1705 26.7186 24 18.9094 24 12.2163C24 5.46762 18.627 0 12 0ZM7.5 10.1357C7.5 11.6658 9.2475 13.2813 10.5645 14.2833C11.1945 14.7618 11.5095 15.0003 12 15.0003C12.492 15.0003 12.8055 14.7603 13.4355 14.2818C14.7525 13.2828 16.5 11.6673 16.5 10.1372C16.5 7.53767 14.025 6.56714 12 8.57569C9.975 6.56714 7.5 7.53767 7.5 10.1372" fill="#D8222F"/>
</svg>
